<?xml version="1.0" encoding="UTF-8"?>
<svg id="Layer_1" xmlns="http://www.w3.org/2000/svg" version="1.1" viewBox="0 0 2500 757.54">
  <!-- Generator: Adobe Illustrator 30.0.0, SVG Export Plug-In . SVG Version: 2.1.1 Build 123)  -->
  <defs>
    <style>
      .st0 {
        fill: none;
      }

      .st1 {
        fill: #fa4700;
      }

      .st2 {
        fill: #410207;
      }
    </style>
  </defs>
  <g>
    <rect class="st0" x="163.54" width="2172.92" height="163.54"/>
    <rect class="st0" x="163.54" y="594" width="2172.92" height="163.54"/>
    <rect class="st0" x="-297" y="297" width="757.54" height="163.54" transform="translate(460.54 297) rotate(90)"/>
    <rect class="st0" x="2039.46" y="297" width="757.54" height="163.54" transform="translate(2797 -2039.46) rotate(90)"/>
  </g>
  <g>
    <path class="st1" d="M2062.04,256.92c5.81-1.5,11.07-3.89,15.78-7.15,4.7-3.26,8.72-6.96,12.04-11.1,3.32-4.14,5.74-8.59,7.26-13.35,1.52-4.76,2.14-9.41,1.87-13.92h-23.67c-2.22-3.01-4.01-6.08-5.4-9.22-1.39-3.13-2.08-6.46-2.08-9.97,0-3.02.34-5.83,1.04-8.47.69-2.64,1.59-5.08,2.7-7.34,1.1-2.26,2.35-4.39,3.74-6.4h46.09c2.21,5.02,4.01,9.91,5.4,14.67,1.38,4.77,2.08,9.66,2.08,14.67,0,7.03-1.32,14.43-3.95,22.2-2.63,7.78-6.58,14.67-11.83,20.7-4.15,5.02-9.9,10.03-17.23,15.05-7.34,5.02-16.13,8.53-26.37,10.53l-7.47-10.91Z"/>
    <path class="st2" d="M352.22,341.81v3.27h-20.02c-16.38,0-32.76-4.91-42.17-17.2-9.4-12.28-25.78-35.49-37.01-49.41-5.15-6.55-10.92-7.64-16.08-7.64h-28.51v53.51c0,11.47,7.28,17.2,21.84,17.74v3h-66.74v-3c14.56-.55,21.84-6.28,21.84-17.47v-140.05c0-11.2-7.28-17.2-21.84-17.47v-2.73h86.76c40.04,0,64.31,18.29,64.31,52.69,0,27.85-16.08,43.68-37.61,50.23,2.43,2.46,4.85,4.92,6.98,7.37,14.56,17.74,24.27,35.22,32.16,44.5,10.62,11.47,19.71,22.66,36.1,22.66ZM208.44,267.82h36.4c20.02,0,43.68-17.74,43.68-50.78,0-29.21-18.2-49.68-47.02-49.68h-33.06v100.46Z"/>
    <path class="st2" d="M523.29,345.63c-45.2,0-93.12-31.94-93.12-90.91s48.84-91.18,97.07-91.18,95.86,31.94,95.86,91.18-55.21,90.91-92.22,90.91h-7.58ZM460.2,254.72c0,39.31,29.42,87.09,66.43,87.09s66.73-40.13,66.73-87.36-29.42-87.36-66.73-87.36-66.43,38.49-66.43,87.63Z"/>
    <path class="st2" d="M885.77,295.94c0,32.49-34.88,49.14-75.53,49.14h-91.61v-3c13.65-.27,20.93-5.73,21.84-15.84v-143.32c-.91-10.37-8.19-15.56-21.84-15.83v-2.73h83.42c40.65,0,64.01,13.92,64.01,43.95,0,15.02-12.14,34.94-31.85,39.31,33.06,4.37,51.57,21.57,51.57,48.32ZM763.82,167.63v79.99h38.52c21.23,0,38.22-14.74,38.22-39.31,0-23.2-17.29-40.68-43.07-40.68h-33.67ZM856.65,295.94c0-31.12-23.06-43.95-54.3-43.95h-38.22v90.09h37.61c33.67,0,54.91-17.74,54.91-46.14Z"/>
    <path class="st2" d="M1138.74,306.86l5.15-.55-9.7,38.77h-148.64v-3c14.86-.27,21.23-7.1,21.84-22.39l.61-130.49c-.61-15.29-6.97-21.84-21.84-22.11v-2.73l141.97-.27,8.79,38.22h-4.85c-3.03-9.83-23.66-35.22-43.07-35.22h-57.03v80.53h41.25c13.35-.27,19.41-13.1,19.72-25.94h4.85v55.42h-4.85c-.31-12.56-6.37-25.39-19.41-25.66h-41.56v90.64h63.7c26.39,0,40.04-25.39,43.08-35.22Z"/>
    <path class="st2" d="M1430.84,341.81v3.27h-20.02c-16.38,0-32.76-4.91-42.17-17.2-9.4-12.28-25.78-35.49-37.01-49.41-5.15-6.55-10.92-7.64-16.08-7.64h-28.51v53.51c0,11.47,7.28,17.2,21.84,17.74v3h-66.74v-3c14.56-.55,21.84-6.28,21.84-17.47v-140.05c0-11.2-7.28-17.2-21.84-17.47v-2.73h86.76c40.04,0,64.31,18.29,64.31,52.69,0,27.85-16.08,43.68-37.61,50.23,2.43,2.46,4.85,4.92,6.98,7.37,14.56,17.74,24.27,35.22,32.16,44.5,10.62,11.47,19.71,22.66,36.1,22.66ZM1287.06,267.82h36.4c20.02,0,43.68-17.74,43.68-50.78,0-29.21-18.2-49.68-47.02-49.68h-33.06v100.46Z"/>
    <path class="st2" d="M1663.8,164.36l9.1,37.95h-5.16c-3.03-9.56-23.66-35.22-43.07-35.22h-25.18v157.52c0,11.19,7.58,17.2,21.84,17.47v3h-67.65v-3c13.35-.27,21.84-6.28,21.84-16.93v-158.07h-24.87c-19.41,0-40.04,25.66-43.07,35.22h-5.16l9.1-37.95h152.28Z"/>
    <path class="st2" d="M1862.77,345.63c-45.2,0-93.12-31.94-93.12-90.91s48.84-91.18,97.07-91.18,95.85,31.94,95.85,91.18-55.2,90.91-92.21,90.91h-7.58ZM1799.68,254.72c0,39.31,29.42,87.09,66.43,87.09s66.73-40.13,66.73-87.36-29.42-87.36-66.73-87.36-66.43,38.49-66.43,87.63Z"/>
    <path class="st2" d="M2336.46,299.04c0,34.61-30.17,46.59-58.57,46.59s-53.84-9.85-68.63-24.49l12.72-22.36s20.71,43.93,55.9,43.93c25.44,0,36.97-21.03,36.97-31.68,0-33.28-29.88-42.59-40.23-46.59,0,0-15.97-6.12-21-8.25-15.38-5.85-38.45-19.97-36.39-48.18,1.18-18.1,15.68-44.46,55.61-44.46s59.46,19.7,59.46,19.7l-16.86,19.17s-10.65-36.47-42-36.47c-19.52,0-35.2,13.58-37.27,30.88-1.77,15.71,10.06,33.54,30.17,42.33,1.77.8,18.04,7.99,21.59,9.58,21.6,8.78,48.51,24.49,48.51,50.31Z"/>
  </g>
  <g>
    <path class="st2" d="M1007.51,546.18c0-6.33-1.14-12.32-3.43-17.96-2.29-5.64-5.49-10.57-9.6-14.78-4.12-4.2-8.99-7.55-14.59-10.02-5.61-2.47-11.69-3.71-18.24-3.71h-7.59v87.61h7.9c5.36,0,10.74-.82,16.15-2.45,5.41-1.64,10.3-4.16,14.67-7.57,4.37-3.42,7.92-7.7,10.65-12.85,2.73-5.14,4.1-11.23,4.1-18.26M938.6,591.03h.74c.69,0,1.33-.29,1.93-.89.6-.6,1.11-1.29,1.56-2.08.44-.79.76-1.66.97-2.6.19-.94.29-1.8.29-2.59v-79.15c0-.69-.1-1.49-.29-2.37-.2-.89-.5-1.73-.89-2.53-.4-.79-.89-1.46-1.49-2-.59-.54-1.29-.82-2.08-.82h-.74v-1.48h28.66c7.82,0,14.85,1.36,21.09,4.08,6.24,2.72,11.51,6.38,15.81,10.99,4.31,4.6,7.6,9.87,9.88,15.82,2.27,5.94,3.41,12.13,3.41,18.56,0,6.04-1.09,11.95-3.26,17.75-2.18,5.79-5.45,10.97-9.81,15.52-4.35,4.55-9.79,8.24-16.33,11.06-6.53,2.82-14.1,4.24-22.72,4.24h-26.73v-1.49Z"/>
    <path class="st2" d="M1095.57,494.51h21.09v1.49h-.74c-.79,0-1.48.27-2.08.81-.6.55-1.11,1.21-1.56,2-.44.8-.76,1.64-.97,2.53-.19.89-.29,1.68-.29,2.37v58.66c0,3.86.4,7.42,1.19,10.69.79,3.26,2.13,6.09,4.01,8.47,1.88,2.37,4.36,4.23,7.43,5.56,3.07,1.34,6.83,2.01,11.29,2.01,4.95,0,8.91-.8,11.88-2.38,2.97-1.58,5.25-3.64,6.83-6.16,1.59-2.53,2.63-5.38,3.12-8.54.49-3.17.74-6.29.74-9.36v-58.96c0-.69-.09-1.48-.29-2.37s-.52-1.73-.97-2.53c-.44-.79-.97-1.45-1.56-2-.59-.54-1.24-.81-1.93-.81h-.74v-1.49h16.19v1.49h-.74c-.8,0-1.46.27-2,.81-.55.55-1.04,1.21-1.49,2-.45.8-.76,1.64-.97,2.53-.2.89-.29,1.68-.29,2.37v58.51c0,6.44-.8,11.71-2.38,15.82-1.58,4.11-3.76,7.35-6.54,9.73-2.77,2.37-6.01,4.01-9.73,4.9-3.71.89-7.65,1.34-11.8,1.34-4.46,0-8.59-.48-12.4-1.41-3.81-.94-7.1-2.6-9.87-4.97-2.77-2.38-4.95-5.62-6.54-9.73-1.58-4.11-2.37-9.28-2.37-15.52v-58.66c0-.69-.1-1.48-.29-2.37-.2-.89-.52-1.73-.97-2.53-.44-.79-.97-1.45-1.55-2-.6-.54-1.24-.81-1.93-.81h-.74v-1.49Z"/>
    <path class="st2" d="M1297.52,565.56c-.79-7.65-3.37-13.56-7.72-17.73-4.36-4.17-10.5-6.25-18.42-6.25h-8.31v46.18h8.61c8.02,0,14.33-1.82,18.93-5.44,4.6-3.63,6.91-8.67,6.91-15.13v-1.64ZM1291.43,518.04c-.3-5.76-2.31-10.34-6.02-13.71-3.71-3.38-8.68-5.07-14.92-5.07h-7.43v37.57h7.72c4.16,0,7.55-.55,10.17-1.64,2.62-1.09,4.73-2.51,6.31-4.25,1.58-1.74,2.67-3.65,3.26-5.74.6-2.08.9-4.13.9-6.11v-1.05ZM1247.62,591.03h.74c.69,0,1.33-.29,1.92-.89.6-.6,1.12-1.29,1.56-2.08.45-.79.76-1.66.97-2.6.2-.94.3-1.8.3-2.59v-79c0-.69-.1-1.48-.3-2.37-.2-.89-.52-1.76-.97-2.6-.44-.84-.99-1.53-1.63-2.08-.65-.54-1.36-.82-2.15-.82h-.74v-1.48h24.35c9.2,0,16.41,2.02,21.6,6.09,5.2,4.06,7.8,9.46,7.8,16.19,0,2.87-.5,5.44-1.49,7.72-.99,2.28-2.25,4.3-3.79,6.09-1.53,1.78-3.19,3.29-4.97,4.53-1.78,1.24-3.47,2.25-5.05,3.04,4.16.8,7.62,2.13,10.39,4.01,2.77,1.88,5.01,4.04,6.71,6.46,1.7,2.43,2.89,5.02,3.57,7.8.68,2.77,1.01,5.5,1.01,8.17,0,5.15-.94,9.48-2.81,12.99-1.88,3.51-4.38,6.39-7.48,8.61-3.11,2.23-6.67,3.84-10.66,4.83-4,.99-8.12,1.49-12.37,1.49h-26.52v-1.49Z"/>
    <path class="st2" d="M1408.3,544.1h22.87l-11.43-31.03-11.43,31.03ZM1442.31,591.03h.74c2.37,0,3.56-1.09,3.56-3.26,0-.79-.15-1.64-.44-2.53l-13.37-36.08h-25.99l-12.92,35.48c-.3.8-.45,1.53-.45,2.23,0,1.29.35,2.3,1.04,3.04.69.74,1.43,1.11,2.23,1.11h.74v1.49h-16.48v-1.49h.74c1.29,0,2.55-.76,3.79-2.3,1.23-1.53,2.25-3.34,3.04-5.42l34-90.58,33.27,89.69c.69,1.98,1.66,3.91,2.9,5.79,1.23,1.88,2.84,2.82,4.83,2.82h.74v1.49h-21.98v-1.49Z"/>
    <path class="st2" d="M1539.12,494.51h21.09v1.49h-.74c-.69,0-1.33.27-1.93.81-.59.55-1.09,1.19-1.48,1.93-.4.74-.72,1.59-.97,2.53-.25.94-.37,1.76-.37,2.45v79.15c0,.79.09,1.66.29,2.6.19.94.52,1.8.97,2.59.44.8.94,1.49,1.49,2.08.54.6,1.21.89,2,.89h.74v1.49h-21.09v-1.49h.74c.79,0,1.49-.27,2.08-.81.59-.55,1.11-1.24,1.56-2.08.44-.84.76-1.73.96-2.67.2-.95.3-1.81.3-2.6v-79.15c0-.69-.1-1.48-.3-2.37-.19-.89-.52-1.73-.96-2.53-.45-.79-.97-1.45-1.56-2-.6-.54-1.29-.81-2.08-.81h-.74v-1.49Z"/>
  </g>
</svg>