<?xml version="1.0" encoding="UTF-8"?>
<svg id="Layer_1" xmlns="http://www.w3.org/2000/svg" version="1.1" viewBox="0 0 2500 509.17">
  <!-- Generator: Adobe Illustrator 30.0.0, SVG Export Plug-In . SVG Version: 2.1.1 Build 123)  -->
  <defs>
    <style>
      .st0 {
        fill: none;
      }

      .st1 {
        fill: #fa4700;
      }

      .st2 {
        fill: #410207;
      }
    </style>
  </defs>
  <g>
    <rect class="st0" x="163.54" width="2172.92" height="163.54"/>
    <rect class="st0" x="163.54" y="345.63" width="2172.92" height="163.54"/>
    <rect class="st0" x="-172.81" y="172.81" width="509.17" height="163.54" transform="translate(336.35 172.81) rotate(90)"/>
    <rect class="st0" x="2163.65" y="172.81" width="509.17" height="163.54" transform="translate(2672.81 -2163.65) rotate(90)"/>
  </g>
  <g>
    <path class="st1" d="M2062.04,256.92c5.81-1.5,11.07-3.89,15.78-7.15,4.7-3.26,8.72-6.96,12.04-11.1,3.32-4.14,5.74-8.59,7.26-13.35,1.52-4.76,2.14-9.41,1.87-13.92h-23.67c-2.22-3.01-4.01-6.08-5.4-9.22-1.39-3.13-2.08-6.46-2.08-9.97,0-3.02.34-5.83,1.04-8.47.69-2.64,1.59-5.08,2.7-7.34,1.1-2.26,2.35-4.39,3.74-6.4h46.09c2.21,5.02,4.01,9.91,5.4,14.67,1.38,4.77,2.08,9.66,2.08,14.67,0,7.03-1.32,14.43-3.95,22.2-2.63,7.78-6.58,14.67-11.83,20.7-4.15,5.02-9.9,10.03-17.23,15.05-7.34,5.02-16.13,8.53-26.37,10.53l-7.47-10.91Z"/>
    <path class="st2" d="M352.22,341.81v3.27h-20.02c-16.38,0-32.76-4.91-42.17-17.2-9.4-12.28-25.78-35.49-37.01-49.41-5.15-6.55-10.92-7.64-16.08-7.64h-28.51v53.51c0,11.47,7.28,17.2,21.84,17.74v3h-66.74v-3c14.56-.55,21.84-6.28,21.84-17.47v-140.05c0-11.2-7.28-17.2-21.84-17.47v-2.73h86.76c40.04,0,64.31,18.29,64.31,52.69,0,27.85-16.08,43.68-37.61,50.23,2.43,2.46,4.85,4.92,6.98,7.37,14.56,17.74,24.27,35.22,32.16,44.5,10.62,11.47,19.71,22.66,36.1,22.66ZM208.44,267.82h36.4c20.02,0,43.68-17.74,43.68-50.78,0-29.21-18.2-49.68-47.02-49.68h-33.06v100.46Z"/>
    <path class="st2" d="M523.29,345.63c-45.2,0-93.12-31.94-93.12-90.91s48.84-91.18,97.07-91.18,95.86,31.94,95.86,91.18-55.21,90.91-92.22,90.91h-7.58ZM460.2,254.72c0,39.31,29.42,87.09,66.43,87.09s66.73-40.13,66.73-87.36-29.42-87.36-66.73-87.36-66.43,38.49-66.43,87.63Z"/>
    <path class="st2" d="M885.77,295.94c0,32.49-34.88,49.14-75.53,49.14h-91.61v-3c13.65-.27,20.93-5.73,21.84-15.84v-143.32c-.91-10.37-8.19-15.56-21.84-15.83v-2.73h83.42c40.65,0,64.01,13.92,64.01,43.95,0,15.02-12.14,34.94-31.85,39.31,33.06,4.37,51.57,21.57,51.57,48.32ZM763.82,167.63v79.99h38.52c21.23,0,38.22-14.74,38.22-39.31,0-23.2-17.29-40.68-43.07-40.68h-33.67ZM856.65,295.94c0-31.12-23.06-43.95-54.3-43.95h-38.22v90.09h37.61c33.67,0,54.91-17.74,54.91-46.14Z"/>
    <path class="st2" d="M1138.74,306.86l5.15-.55-9.7,38.77h-148.64v-3c14.86-.27,21.23-7.1,21.84-22.39l.61-130.49c-.61-15.29-6.97-21.84-21.84-22.11v-2.73l141.97-.27,8.79,38.22h-4.85c-3.03-9.83-23.66-35.22-43.07-35.22h-57.03v80.53h41.25c13.35-.27,19.41-13.1,19.72-25.94h4.85v55.42h-4.85c-.31-12.56-6.37-25.39-19.41-25.66h-41.56v90.64h63.7c26.39,0,40.04-25.39,43.08-35.22Z"/>
    <path class="st2" d="M1430.84,341.81v3.27h-20.02c-16.38,0-32.76-4.91-42.17-17.2-9.4-12.28-25.78-35.49-37.01-49.41-5.15-6.55-10.92-7.64-16.08-7.64h-28.51v53.51c0,11.47,7.28,17.2,21.84,17.74v3h-66.74v-3c14.56-.55,21.84-6.28,21.84-17.47v-140.05c0-11.2-7.28-17.2-21.84-17.47v-2.73h86.76c40.04,0,64.31,18.29,64.31,52.69,0,27.85-16.08,43.68-37.61,50.23,2.43,2.46,4.85,4.92,6.98,7.37,14.56,17.74,24.27,35.22,32.16,44.5,10.62,11.47,19.71,22.66,36.1,22.66ZM1287.06,267.82h36.4c20.02,0,43.68-17.74,43.68-50.78,0-29.21-18.2-49.68-47.02-49.68h-33.06v100.46Z"/>
    <path class="st2" d="M1663.8,164.36l9.1,37.95h-5.16c-3.03-9.56-23.66-35.22-43.07-35.22h-25.18v157.52c0,11.19,7.58,17.2,21.84,17.47v3h-67.65v-3c13.35-.27,21.84-6.28,21.84-16.93v-158.07h-24.87c-19.41,0-40.04,25.66-43.07,35.22h-5.16l9.1-37.95h152.28Z"/>
    <path class="st2" d="M1862.77,345.63c-45.2,0-93.12-31.94-93.12-90.91s48.84-91.18,97.07-91.18,95.85,31.94,95.85,91.18-55.2,90.91-92.21,90.91h-7.58ZM1799.68,254.72c0,39.31,29.42,87.09,66.43,87.09s66.73-40.13,66.73-87.36-29.42-87.36-66.73-87.36-66.43,38.49-66.43,87.63Z"/>
    <path class="st2" d="M2336.46,299.04c0,34.61-30.17,46.59-58.57,46.59s-53.84-9.85-68.63-24.49l12.72-22.36s20.71,43.93,55.9,43.93c25.44,0,36.97-21.03,36.97-31.68,0-33.28-29.88-42.59-40.23-46.59,0,0-15.97-6.12-21-8.25-15.38-5.85-38.45-19.97-36.39-48.18,1.18-18.1,15.68-44.46,55.61-44.46s59.46,19.7,59.46,19.7l-16.86,19.17s-10.65-36.47-42-36.47c-19.52,0-35.2,13.58-37.27,30.88-1.77,15.71,10.06,33.54,30.17,42.33,1.77.8,18.04,7.99,21.59,9.58,21.6,8.78,48.51,24.49,48.51,50.31Z"/>
  </g>
</svg>
